<svg xmlns="http://www.w3.org/2000/svg" width="178.372" height="297.279" viewBox="0 0 178.372 297.279"><g transform="translate(-321.628 -2367.105)"><g transform="translate(321.628 2498.09)"><path d="M0,0,34.095,86.295l22.867,72.955h9.03L31.033,0Z" transform="translate(83.786 0)" fill="#e3ad7b"/><path d="M64.909,0c-.363,30.325-5.658,71.152-6.5,73.042S0,121.118,0,121.118l6.219,6.655s67.915-39.6,71.057-44.88S90.651,29.011,98.866,0Z" transform="translate(12.012 0)" fill="#e3ad7b"/><g transform="translate(12.548 113.294) rotate(50)"><path d="M3.545,4.058A1.585,1.585,0,0,0,1.512,5.126L0,10.455a50.913,50.913,0,0,0,.714,6.256h44.7s1.742-5.76-2.012-6.22-6.237-.829-6.237-.829L16.389.4a.793.793,0,0,0-1.055.422L14,4.062S10.523,5.684,8.351,5.684Z" transform="translate(0 -0.332)" fill="#e4e4e4"/></g><g transform="translate(135.372 138.294)"><path d="M3.108,3.6a1.389,1.389,0,0,0-1.782.937L0,9.205a44.626,44.626,0,0,0,.626,5.484h39.18s1.527-5.049-1.763-5.451-5.467-.727-5.467-.727L14.365.392a.7.7,0,0,0-.925.37L12.27,3.6a15.744,15.744,0,0,1-4.95,1.421Z" transform="translate(0.695 13.097)" fill="#e4e4e4"/></g><path d="M27.339,151.735l42.933-4.659L38.453,0H0Z" transform="translate(79.371 0)" fill="#555"/><path d="M0,110.381l28.161,33.333S72.654,95.12,80.04,80.3,93.319,0,93.319,0H50.028s-3.219,57.6-4.34,60.285S0,110.381,0,110.381Z" transform="translate(20.892 0)" fill="#292929"/></g><g transform="translate(396.513 2367.105)"><g transform="translate(2.19 5.052)"><path d="M0,51,5.7,24.1C2.524,20.317.37,15.686.73,10.5,1.767-4.454,22.336-1.165,26.337,6.381s3.526,26.687-1.645,28.036c-2.062.538-6.456-.78-10.927-3.507L16.572,51Z" transform="translate(0.297 0.227)" fill="#e3ad7b"/></g><path d="M7.237,32.183C5.145,22.874-.817,16.528.094,12.367A7.082,7.082,0,0,1,4.947,7.192S6.986-1.056,18.1.175s17.9,5.847,14.968,16c-2.693,0-5.943-.974-10.439.695-2.139.794-3.06,4.925-3.06,4.925H17.537s-2.957-4.9-5.832-3.6S10.4,24.508,10.4,24.508l-1,7.675Z" transform="translate(0 -0.05)"/></g><g transform="translate(332.147 2406.273)"><path d="M.972,69.311c-.884-.55-1.852-2.62.488-4.237,5.829-4.029,14.231-11.082,15.366-13.4C19.148,46.923,27.055.645,27.055.645L43.612.711s-15.335,49.9-16.557,52.954c-1.833,4.58,2.046,11.556,3.705,15.3-2.615,1.18-3.83-.326-5.161-1.832-1.418-1.606-2.967-3.21-6.484-1.561-4.5,2.111-8.222,5.461-12.658,5.461A10.233,10.233,0,0,1,.972,69.311ZM143.536,24.383,118.507,13.921,124.095,0l25.275,18.707a67.719,67.719,0,0,1,17.181,6.96c1.086,1,2.4,3.019-2.106,2.669s-9.261-.513-9.883,1.037,2.105,3.4.849,5.491a.6.6,0,0,1-.549.3Q152.639,35.162,143.536,24.383Z" transform="translate(0 76.452)" fill="#e3ad7b"/><path d="M0,1.777,6.722,0C33.975,19.836,48.083,61.288,81.088,81.014L74.433,91C19.994,88.993,2.126,38.488,0,1.777Z" transform="matrix(0.996, 0.087, -0.087, 0.996, 74.264, 5.294)" fill="#17ffbd" stroke="#000" stroke-width="1"/><path d="M0,91.048H60.623c2.77,0,2.248-4.032,1.848-6.067C57.849,61.5,39.808,36.189,39.808,2.764L22.322,0C7.858,23.448,2.856,52.316,0,91.048Z" transform="translate(44.242 2.806)" fill="#dde3e9"/><path d="M.08,127.4c-1.4-45.587,15.725-80.668,30.055-101.82A9.186,9.186,0,0,1,22.266,20.7C15.875,9.08,18.183,2.68,25.013.576s12.921,2.23,23.8,2.23a8.416,8.416,0,0,1,1.3.093l5.8.334S79.477,83.715,68.913,110.626H21A153.806,153.806,0,0,1,13.082,127.4Z" transform="translate(16.429 0)" fill="#17ffbd" stroke="#000" stroke-width="1"/><path d="M17.909,29.188H0C3.285,21.237,6.908,11.417,10.768,0c1.608,14.07,4.01,23.889,7.14,29.187Z" transform="translate(37.425 81.437)" fill="rgba(0,0,0,0.1)"/></g></g></svg>