<svg xmlns="http://www.w3.org/2000/svg" width="167.605" height="147.874" viewBox="0 0 167.605 147.874"><g transform="translate(0 0.385)"><path d="M.972,69.311c-.884-.55-1.852-2.62.488-4.237,5.829-4.029,14.231-11.082,15.366-13.4C19.148,46.923,27.055.645,27.055.645L43.612.711s-15.335,49.9-16.557,52.954c-1.833,4.58,2.046,11.556,3.705,15.3-2.615,1.18-3.83-.326-5.161-1.832-1.418-1.606-2.967-3.21-6.484-1.561-4.5,2.111-8.222,5.461-12.658,5.461A10.233,10.233,0,0,1,.972,69.311ZM143.536,24.383,118.507,13.921,124.095,0l25.275,18.707a67.719,67.719,0,0,1,17.181,6.96c1.086,1,2.4,3.019-2.106,2.669s-9.261-.513-9.883,1.037,2.105,3.4.849,5.491a.6.6,0,0,1-.549.3Q152.639,35.162,143.536,24.383Z" transform="translate(0 76.452)" fill="#e3ad7b"/><path d="M0,1.777,6.722,0C33.975,19.836,48.083,61.288,81.088,81.014L74.433,91C19.994,88.993,2.126,38.488,0,1.777Z" transform="matrix(0.996, 0.087, -0.087, 0.996, 74.264, 5.294)" fill="#17ffbd" stroke="#000" stroke-width="1"/><path d="M0,91.048H60.623c2.77,0,2.248-4.032,1.848-6.067C57.849,61.5,39.808,36.189,39.808,2.764L22.322,0C7.858,23.448,2.856,52.316,0,91.048Z" transform="translate(44.242 2.806)" fill="#dde3e9"/><path d="M.08,127.4c-1.4-45.587,15.725-80.668,30.055-101.82A9.186,9.186,0,0,1,22.266,20.7C15.875,9.08,18.183,2.68,25.013.576s12.921,2.23,23.8,2.23a8.416,8.416,0,0,1,1.3.093l5.8.334S79.477,83.715,68.913,110.626H21A153.806,153.806,0,0,1,13.082,127.4Z" transform="translate(16.429 0)" fill="#17ffbd" stroke="#000" stroke-width="1"/><path d="M17.909,29.188H0C3.285,21.237,6.908,11.417,10.768,0c1.608,14.07,4.01,23.889,7.14,29.187Z" transform="translate(37.425 81.437)" fill="rgba(0,0,0,0.1)"/></g></svg>