<svg xmlns="http://www.w3.org/2000/svg" width="178.372" height="166.294" viewBox="0 0 178.372 166.294"><path d="M0,0,34.095,86.295l22.867,72.955h9.03L31.033,0Z" transform="translate(83.786 0)" fill="#e3ad7b"/><path d="M64.909,0c-.363,30.325-5.658,71.152-6.5,73.042S0,121.118,0,121.118l6.219,6.655s67.915-39.6,71.057-44.88S90.651,29.011,98.866,0Z" transform="translate(12.012 0)" fill="#e3ad7b"/><g transform="translate(12.548 113.294) rotate(50)"><path d="M3.545,4.058A1.585,1.585,0,0,0,1.512,5.126L0,10.455a50.913,50.913,0,0,0,.714,6.256h44.7s1.742-5.76-2.012-6.22-6.237-.829-6.237-.829L16.389.4a.793.793,0,0,0-1.055.422L14,4.062S10.523,5.684,8.351,5.684Z" transform="translate(0 -0.332)" fill="#e4e4e4"/></g><g transform="translate(135.372 138.294)"><path d="M3.108,3.6a1.389,1.389,0,0,0-1.782.937L0,9.205a44.626,44.626,0,0,0,.626,5.484h39.18s1.527-5.049-1.763-5.451-5.467-.727-5.467-.727L14.365.392a.7.7,0,0,0-.925.37L12.27,3.6a15.744,15.744,0,0,1-4.95,1.421Z" transform="translate(0.695 13.097)" fill="#e4e4e4"/></g><path d="M27.339,151.735l42.933-4.659L38.453,0H0Z" transform="translate(79.371 0)" fill="#555"/><path d="M0,110.381l28.161,33.333S72.654,95.12,80.04,80.3,93.319,0,93.319,0H50.028s-3.219,57.6-4.34,60.285S0,110.381,0,110.381Z" transform="translate(20.892 0)" fill="#292929"/></svg>