<?xml version="1.0" encoding="utf-8"?>
<!-- Generator: Adobe Illustrator 23.0.1, SVG Export Plug-In . SVG Version: 6.00 Build 0)  -->
<svg version="1.1" id="Layer_1" xmlns="http://www.w3.org/2000/svg" xmlns:xlink="http://www.w3.org/1999/xlink" x="0px" y="0px"
	 viewBox="0 0 100 100" style="enable-background:new 0 0 100 100;" xml:space="preserve">
<style type="text/css">
	.st0{fill:none;}
	.st1{fill-rule:evenodd;clip-rule:evenodd;}
	.st2{fill:#8F9DBA;}
	.st3{fill:none;stroke:#BDCCD4;stroke-width:3;stroke-miterlimit:10;}
</style>
<polyline class="st0" points="84.76,22.46 84.76,27.9 84.76,31.92 84.76,34.39 84.76,35.94 "/>
<line class="st0" x1="84.76" y1="44.03" x2="84.76" y2="43.99"/>
<line class="st0" x1="84.76" y1="60.08" x2="84.76" y2="59.88"/>
<line class="st0" x1="84.76" y1="85.32" x2="84.76" y2="80.19"/>
<polyline class="st0" points="75.89,22.46 75.89,24.37 75.89,27.85 75.89,28.62 75.89,31.87 75.89,32.87 75.89,34.74 75.89,35.89 
	"/>
<polyline class="st0" points="75.89,39.92 75.89,41.37 75.89,43.94 75.89,44.03 75.89,45.62 75.89,47.96 75.89,48.67 75.89,49.87 
	75.89,51.98 "/>
<polyline class="st0" points="75.89,56.01 75.89,57.97 75.89,58.37 75.89,60.03 75.89,62.61 75.89,62.62 75.89,64.05 75.89,66.87 
	75.89,67.26 75.89,68.08 75.89,71.11 75.89,71.9 75.89,72.1 75.89,75.36 75.89,76.12 75.89,76.54 75.89,80.14 75.89,81.19 
	75.89,85.32 "/>
<polyline class="st0" points="80.33,35.91 80.33,35.75 80.33,31.89 80.33,31.5 80.33,27.87 80.33,27.26 80.33,23.01 80.33,22.46 "/>
<line class="st0" x1="80.33" y1="85.32" x2="80.33" y2="80.17"/>
<line class="st0" x1="80.33" y1="69.74" x2="80.33" y2="69.58"/>
<line class="st0" x1="80.33" y1="40" x2="80.33" y2="39.94"/>
<polyline class="st0" points="71.46,22.46 71.46,25.74 71.46,27.82 71.46,29.99 71.46,31.85 71.46,32.42 71.46,34.24 71.46,35.87 
	"/>
<polyline class="st0" points="71.46,55.99 71.46,59.73 71.46,60.01 71.46,60.28 71.46,63.98 71.46,64.03 71.46,64.94 71.46,68.06 
	71.46,68.23 71.46,69.58 71.46,72.08 71.46,72.48 71.46,74.22 71.46,76.1 71.46,76.72 71.46,78.87 71.46,80.12 71.46,83.51 
	71.46,85.32 "/>
<polyline class="st0" points="71.46,51.96 71.46,51.23 71.46,50.99 71.46,47.94 71.46,46.99 71.46,46.35 71.46,43.92 71.46,42.74 
	71.46,41.71 71.46,39.89 "/>
<g>
	<path class="st1" d="M64.07,53.55L64.07,53.55z"/>
</g>
<g>
	<path class="st1" d="M64.42,20.37L64.42,20.37z"/>
</g>
<polyline class="st0" points="67.03,22.46 67.03,22.86 67.03,27.1 67.03,27.8 67.03,30.1 67.03,31.35 67.03,31.82 67.03,34.74 
	67.03,35.6 67.03,35.84 "/>
<line class="st0" x1="67.03" y1="39.87" x2="67.03" y2="39.85"/>
<line class="st0" x1="67.03" y1="44.03" x2="67.03" y2="43.89"/>
<line class="st0" x1="67.03" y1="48.67" x2="67.03" y2="48.35"/>
<polyline class="st0" points="67.03,85.32 67.03,81.19 67.03,80.1 "/>
<polyline class="st0" points="62.6,35.82 62.6,32.72 62.6,32.41 62.6,31.8 62.6,28.47 62.6,27.78 62.6,24.22 62.6,22.46 "/>
<line class="st0" x1="62.6" y1="55.94" x2="62.6" y2="55.64"/>
<polyline class="st0" points="62.6,80.07 62.6,83.52 62.6,85.32 "/>
<polyline class="st0" points="44.87,22.46 44.87,23.12 44.87,27.68 44.87,27.78 44.87,29.68 44.87,31.71 44.87,32.42 44.87,33.93 
	"/>
<polyline class="st0" points="44.87,75.96 44.87,76.42 44.87,78.87 44.87,79.98 44.87,80.67 44.87,84.92 44.87,85.32 "/>
<polyline class="st0" points="44.87,59.43 44.87,59.87 44.87,60.28 44.87,63.68 44.87,63.89 "/>
<line class="st0" x1="44.87" y1="67.93" x2="44.87" y2="67.91"/>
<polyline class="st0" points="44.87,51 44.87,50.93 44.87,47.8 44.87,46.68 44.87,46.35 44.87,43.78 44.87,42.43 44.87,41.71 "/>
<polyline class="st0" points="40.43,35.3 40.43,34.73 40.43,31.68 40.43,31.05 40.43,30.09 40.43,27.65 40.43,25.45 40.43,22.46 "/>
<polyline class="st0" points="40.43,53.32 40.43,55.81 40.43,56.55 "/>
<polyline class="st0" points="40.43,85.32 40.43,82.03 40.43,79.95 40.43,77.79 40.43,76.55 40.43,75.93 40.43,73.54 40.43,71.91 
	40.43,71.9 "/>
<polyline class="st0" points="40.43,67.25 40.43,65.04 40.43,63.86 40.43,62.61 40.43,60.8 "/>
<polyline class="st0" points="40.43,48.68 40.43,48.05 40.43,47.77 40.43,44.03 40.43,43.8 40.43,43.75 40.43,39.72 40.43,39.55 "/>
<polyline class="st0" points="58.16,80.82 58.16,81.19 58.16,85.32 "/>
<line class="st0" x1="58.16" y1="63.96" x2="58.16" y2="63.83"/>
<line class="st0" x1="58.16" y1="44.02" x2="58.16" y2="43.85"/>
<polyline class="st0" points="58.16,22.46 58.16,25.45 58.16,25.59 58.16,27.75 "/>
<line class="st0" x1="58.16" y1="30.09" x2="58.16" y2="29.84"/>
<polyline class="st0" points="53.73,82.19 53.73,83.51 53.73,85.32 "/>
<line class="st0" x1="53.73" y1="65.2" x2="53.73" y2="64.93"/>
<line class="st0" x1="53.73" y1="43.95" x2="53.73" y2="43.82"/>
<polyline class="st0" points="53.73,22.46 53.73,23.13 53.73,26.95 53.73,27.73 "/>
<polyline class="st0" points="49.3,22.46 49.3,25.44 49.3,27.7 49.3,28.32 49.3,30.1 49.3,31.73 49.3,32.57 "/>
<polyline class="st0" points="49.3,63.91 49.3,62.61 49.3,62.31 49.3,59.89 49.3,58.06 "/>
<polyline class="st0" points="49.3,85.32 49.3,83.55 49.3,81.19 49.3,80 49.3,79.3 49.3,76.55 49.3,75.98 "/>
<polyline class="st0" points="49.3,43.8 49.3,44.03 49.3,45.32 49.3,47.82 49.3,48.67 49.3,49.56 49.3,51.84 49.3,53.32 "/>
<polyline class="st0" points="36,22.46 36,23.13 36,27.63 36,27.77 36,31.66 36,32.41 36,32.42 36,35.68 36,36.67 "/>
<polyline class="st0" points="36,57.91 36,55.79 36,55.64 36,53.66 36,51.77 "/>
<polyline class="st0" points="36,85.32 36,83.4 36,79.93 36,79.16 36,75.91 36,74.91 36,74.22 36,71.89 36,70.66 36,69.58 "/>
<polyline class="st0" points="36,64.93 36,63.84 36,62.16 "/>
<polyline class="st0" points="36,46.35 36,45.17 36,43.73 36,41.71 36,40.92 "/>
<polyline class="st0" points="31.57,22.46 31.57,27.61 31.57,30.09 31.57,31.63 31.57,33.78 31.57,34.74 31.57,35.65 31.57,38.03 
	"/>
<polyline class="st0" points="31.57,67.26 31.57,67.77 31.57,67.84 31.57,71.87 31.57,71.9 31.57,72.03 31.57,75.89 31.57,76.27 
	31.57,79.91 31.57,80.52 31.57,84.76 31.57,85.32 "/>
<polyline class="st0" points="31.57,48.68 31.57,50.78 31.57,51.74 31.57,53.31 31.57,55.03 31.57,55.77 31.57,57.97 31.57,59.28 
	"/>
<line class="st0" x1="31.57" y1="44.03" x2="31.57" y2="43.7"/>
<polyline class="st0" points="27.13,39.4 27.13,37.06 27.13,35.63 27.13,35.15 27.13,31.61 27.13,27.58 27.13,22.46 "/>
<polyline class="st0" points="27.13,85.32 27.13,79.88 27.13,75.86 27.13,73.39 27.13,71.84 27.13,69.58 27.13,69.14 27.13,67.81 
	27.13,64.93 "/>
<polyline class="st0" points="27.13,59.77 27.13,56.4 27.13,55.74 27.13,55.64 27.13,52.15 27.13,51.72 27.13,50.99 27.13,47.9 
	27.13,47.7 "/>
<polyline class="st0" points="32.42,88.75 44.87,84.92 49.3,83.55 52.13,82.68 53.73,82.19 "/>
<polyline class="st0" points="58.16,80.82 60.63,80.06 62.6,79.45 "/>
<polyline class="st0" points="98,68.55 86.29,72.16 84.76,72.63 "/>
<polyline class="st0" points="80.33,73.99 80.05,74.08 75.89,75.36 74.47,75.8 73.46,76.11 71.46,76.72 68.88,77.52 67.03,78.09 "/>
<polyline class="st0" points="53.73,73.69 53.09,73.89 49.3,75.06 "/>
<polyline class="st0" points="29.57,81.14 31.57,80.52 33.54,79.92 36,79.16 40.43,77.79 41.93,77.33 44.87,76.42 46.36,75.96 "/>
<polyline class="st0" points="67.03,69.6 69.84,68.73 71.46,68.23 72.02,68.06 75.42,67.01 75.89,66.87 80.33,65.5 "/>
<polyline class="st0" points="84.76,64.13 84.86,64.1 86.58,63.57 95.15,60.93 "/>
<polyline class="st0" points="62.6,70.96 59.19,72.01 58.67,72.17 58.16,72.33 "/>
<polyline class="st0" points="53.73,77.94 52.61,78.28 49.3,79.3 47.07,79.99 47.03,80 44.87,80.67 40.43,82.03 36,83.4 
	31.57,84.76 30.99,84.94 "/>
<polyline class="st0" points="67.03,73.84 69.37,73.12 71.46,72.48 72.73,72.09 74.94,71.4 75.89,71.11 80.33,69.74 "/>
<polyline class="st0" points="84.76,68.38 85.56,68.13 96.58,64.74 "/>
<polyline class="st0" points="62.6,75.2 59.9,76.04 58.19,76.56 58.16,76.57 "/>
<polyline class="st0" points="53.73,69.45 53.57,69.5 49.3,70.81 "/>
<polyline class="st0" points="42.4,72.94 40.43,73.54 36.82,74.65 36,74.91 32.81,75.89 31.57,76.27 28.14,77.33 "/>
<polyline class="st0" points="67.03,65.35 70.31,64.34 71.31,64.03 71.46,63.98 75.89,62.62 75.9,62.61 80.33,61.25 "/>
<polyline class="st0" points="84.76,59.88 87.07,59.17 93.73,57.12 "/>
<polyline class="st0" points="62.6,66.71 59.16,67.77 58.47,67.98 58.16,68.08 "/>
<line class="st0" x1="44.87" y1="67.93" x2="42.88" y2="68.54"/>
<line class="st0" x1="53.73" y1="65.2" x2="49.3" y2="66.56"/>
<polyline class="st0" points="37.3,70.26 36,70.66 32.08,71.87 31.72,71.98 31.57,72.03 27.13,73.39 26.72,73.52 "/>
<polyline class="st0" points="67.03,61.1 70.58,60 70.8,59.94 71.46,59.73 75.89,58.37 76.37,58.22 80.33,57 "/>
<polyline class="st0" points="84.76,55.63 87.54,54.78 92.3,53.31 "/>
<polyline class="st0" points="62.6,62.46 59.63,63.38 58.16,63.83 "/>
<polyline class="st0" points="53.73,60.95 49.3,62.31 48.95,62.42 44.87,63.68 44.2,63.88 43.36,64.14 40.43,65.04 37.78,65.86 "/>
<polyline class="st0" points="32.19,67.58 31.57,67.77 31.37,67.84 27.13,69.14 26.61,69.3 25.29,69.71 "/>
<line class="st0" x1="69.86" y1="55.98" x2="67.03" y2="56.85"/>
<polyline class="st0" points="84.76,51.39 88.01,50.38 90.88,49.5 "/>
<polyline class="st0" points="62.6,58.21 60.1,58.98 58.16,59.58 "/>
<polyline class="st0" points="53.73,43.95 50.84,44.84 49.3,45.32 45.26,46.56 44.87,46.68 41.31,47.78 40.43,48.05 39.68,48.28 "/>
<polyline class="st0" points="34.1,50 31.57,50.78 28.52,51.72 28.49,51.73 27.13,52.15 22.93,53.44 19.59,54.47 "/>
<polyline class="st0" points="79.82,35.91 80.33,35.75 84.76,34.39 85.18,34.26 "/>
<polyline class="st0" points="58.16,42.59 62.01,41.4 62.6,41.22 "/>
<line class="st0" x1="67.59" y1="39.68" x2="67.03" y2="39.85"/>
<polyline class="st0" points="53.73,39.7 53.42,39.8 51.33,40.44 49.3,41.07 "/>
<polyline class="st0" points="45.74,42.17 44.87,42.43 40.58,43.75 40.43,43.8 40.16,43.88 36,45.17 34.57,45.61 "/>
<polyline class="st0" points="18.17,50.66 23.42,49.04 27.13,47.9 27.76,47.7 "/>
<polyline class="st0" points="83.75,30.45 80.33,31.5 79.08,31.89 75.89,32.87 73.65,33.56 71.46,34.24 68.07,35.28 67.03,35.6 
	66.26,35.84 "/>
<polyline class="st0" points="62.6,36.97 62.48,37 58.16,38.34 "/>
<polyline class="st0" points="49.3,58.06 49.42,58.03 53.73,56.7 "/>
<polyline class="st0" points="23.87,65.9 27.08,64.91 27.13,64.9 "/>
<polyline class="st0" points="69.15,51.95 71.46,51.23 71.75,51.14 75.89,49.87 77.32,49.43 80.33,48.5 "/>
<polyline class="st0" points="84.76,47.14 88.5,45.98 89.45,45.69 "/>
<polyline class="st0" points="62.6,53.96 60.58,54.59 58.16,55.33 "/>
<polyline class="st0" points="53.73,52.45 49.89,53.63 49.3,53.81 "/>
<line class="st0" x1="27.13" y1="60.64" x2="22.44" y2="62.09"/>
<polyline class="st0" points="80.33,44.25 77.8,45.03 75.89,45.62 72.22,46.75 71.46,46.99 68.42,47.92 67.03,48.35 "/>
<line class="st0" x1="88.03" y1="41.88" x2="84.76" y2="42.89"/>
<polyline class="st0" points="62.6,49.72 61.05,50.19 58.16,51.08 "/>
<polyline class="st0" points="44.78,50.96 44.87,50.93 49.3,49.56 50.37,49.23 53.73,48.2 "/>
<polyline class="st0" points="21.02,58.28 22.46,57.84 27.13,56.4 28.04,56.12 29.22,55.75 31.57,55.03 33.63,54.39 36,53.66 
	39.2,52.68 "/>
<polyline class="st0" points="67.03,44.1 67.11,44.08 67.69,43.9 71.46,42.74 72.69,42.36 75.89,41.37 78.28,40.63 80.33,40 "/>
<line class="st0" x1="86.6" y1="38.07" x2="84.76" y2="38.64"/>
<polyline class="st0" points="62.6,45.47 61.54,45.79 58.16,46.83 "/>
<polyline class="st0" points="53.73,35.45 52.71,35.77 51.79,36.05 49.3,36.82 "/>
<line class="st0" x1="40.63" y1="39.49" x2="40.43" y2="39.55"/>
<polyline class="st0" points="16.74,46.85 23.88,44.65 27.03,43.68 27.13,43.65 "/>
<polyline class="st0" points="58.16,34.09 62.6,32.72 62.97,32.61 65.53,31.82 67.03,31.35 68.54,30.89 71.46,29.99 75.89,28.62 
	78.36,27.86 80.33,27.26 82.33,26.64 "/>
<polyline class="st0" points="49.3,32.57 51.98,31.74 52.27,31.65 53.73,31.2 "/>
<polyline class="st0" points="58.16,29.84 62.6,28.47 63.43,28.21 64.81,27.79 67.03,27.1 71.46,25.74 75.89,24.37 80.33,23.01 
	80.9,22.83 "/>
<polyline class="st0" points="15.32,43.04 24.36,40.25 26.33,39.65 27.13,39.4 "/>
<polyline class="st0" points="13.89,39.23 25.6,35.62 27.13,35.15 30.42,34.14 31.57,33.78 36,32.42 36.01,32.41 38.42,31.67 
	40.43,31.05 41.58,30.7 44.87,29.68 47.16,28.98 49.3,28.32 51.27,27.71 52.75,27.25 53.73,26.95 58.16,25.59 58.33,25.54 
	62.6,24.22 67.03,22.86 79.48,19.02 "/>
<polyline class="st0" points="39.23,15.53 53.73,23.13 58.16,25.45 58.33,25.54 62.6,27.78 63.43,28.21 67.03,30.1 68.54,30.89 
	70.36,31.84 71.46,32.42 73.65,33.56 75.89,34.74 78.11,35.9 "/>
<polyline class="st0" points="84.76,39.39 85.88,39.97 99.21,46.96 "/>
<polyline class="st0" points="58.16,34.74 60.19,35.81 62.48,37 62.6,37.07 "/>
<polyline class="st0" points="94.78,53.93 88.01,50.38 84.76,48.68 "/>
<polyline class="st0" points="67.96,39.88 71.46,41.71 72.69,42.36 75.72,43.94 75.89,44.03 77.8,45.03 80.33,46.36 "/>
<polyline class="st0" points="34.8,22.5 36,23.13 40.43,25.45 44.68,27.68 44.87,27.78 47.16,28.98 49.3,30.1 52.27,31.65 
	52.44,31.75 53.73,32.42 "/>
<polygon class="st2" points="50.1,27.58 49.79,27.64 50.07,27.83 48.8,41.53 48.46,41.49 48.79,41.7 46.96,61.42 46.55,61.51 
	46.94,61.55 45.39,78.34 44.93,78.44 40.85,79.29 42.42,62.38 42.75,62.31 42.44,62.11 44.38,41.22 44.8,41.13 44.39,41.09 
	45.88,25.07 50.29,25.5 "/>
<polyline class="st0" points="37.02,19.01 44.87,23.12 49.3,25.44 52.75,27.25 53.65,27.73 53.73,27.77 "/>
<polyline class="st0" points="58.16,30.09 61.42,31.79 62.6,32.41 62.97,32.61 67.03,34.74 68.07,35.28 69.17,35.85 "/>
<polyline class="st0" points="97,50.44 88.5,45.98 84.76,44.03 "/>
<polyline class="st0" points="80.33,41.7 78.28,40.63 76.93,39.92 "/>
<polyline class="st0" points="58.16,39.38 59,39.83 62.01,41.4 62.6,41.71 "/>
<polyline class="st0" points="92.56,57.41 90.04,56.09 87.54,54.78 84.76,53.32 "/>
<polyline class="st0" points="80.33,51 77.32,49.43 75.89,48.67 74.51,47.95 72.22,46.75 71.46,46.35 67.11,44.08 67.03,44.03 "/>
<polyline class="st0" points="32.58,25.98 35.73,27.63 36,27.77 40.43,30.09 41.58,30.7 43.49,31.7 44.87,32.42 46.69,33.37 "/>
<polyline class="st0" points="49.3,34.74 51.24,35.76 51.79,36.05 53.73,37.06 "/>
<polyline class="st0" points="58.16,44.02 61.54,45.79 62.6,46.35 "/>
<polyline class="st0" points="90.35,60.89 88.84,60.1 87.07,59.17 84.76,57.96 "/>
<polyline class="st0" points="73.32,51.97 71.75,51.14 71.46,50.99 67.03,48.67 "/>
<polyline class="st0" points="41.12,35.09 40.43,34.73 36.01,32.41 36,32.41 34.55,31.65 31.57,30.09 30.37,29.46 "/>
<polyline class="st0" points="53.73,41.7 51.33,40.44 50.06,39.78 49.3,39.38 "/>
<polyline class="st0" points="58.16,48.68 61.05,50.19 62.6,51 "/>
<polyline class="st0" points="88.13,64.38 87.62,64.11 86.58,63.57 84.76,62.61 "/>
<polyline class="st0" points="80.33,60.29 79.87,60.05 76.37,58.22 75.89,57.97 72.12,55.99 "/>
<polyline class="st0" points="28.15,32.95 30.42,34.14 31.57,34.74 33.33,35.66 35.52,36.81 "/>
<polyline class="st0" points="53.73,46.35 50.84,44.84 49.3,44.03 48.85,43.8 "/>
<polyline class="st0" points="44.87,41.71 41.08,39.73 40.63,39.49 "/>
<polyline class="st0" points="58.16,67.25 59.16,67.77 59.58,67.99 62.6,69.57 "/>
<polyline class="st0" points="67.03,71.9 67.34,72.06 69.37,73.12 71.46,74.22 74.47,75.8 75.09,76.12 75.89,76.54 79.27,78.31 "/>
<polyline class="st0" points="53.73,64.93 51.81,63.92 49.3,62.61 48.95,62.42 44.87,60.28 44.06,59.86 43.84,59.75 "/>
<polyline class="st0" points="38.73,57.07 36.3,55.79 36,55.64 33.63,54.39 31.57,53.31 28.54,51.73 28.52,51.72 27.13,50.99 
	23.42,49.04 19.29,46.88 "/>
<polyline class="st0" points="58.16,71.9 58.36,72.01 58.67,72.17 62.6,74.23 "/>
<polyline class="st0" points="67.03,76.55 68.88,77.52 71.46,78.87 73.87,80.13 75.89,81.19 77.05,81.8 "/>
<polyline class="st0" points="17.07,50.37 22.93,53.44 27.13,55.64 27.32,55.74 28.04,56.12 31.57,57.97 33.14,58.79 "/>
<polyline class="st0" points="38.25,61.47 40.43,62.61 42.84,63.88 43.36,64.14 44.87,64.94 "/>
<polyline class="st0" points="49.3,67.26 50.6,67.94 53.57,69.5 53.73,69.58 "/>
<polyline class="st0" points="58.16,53.32 60.58,54.59 62.6,55.64 "/>
<line class="st0" x1="85.92" y1="67.86" x2="84.76" y2="67.25"/>
<polyline class="st0" points="80.33,64.93 78.68,64.07 75.9,62.61 75.89,62.61 71.46,60.28 70.93,60.01 70.8,59.94 67.03,57.96 "/>
<polyline class="st0" points="29.94,38.53 27.13,37.06 25.93,36.43 "/>
<polyline class="st0" points="35.05,41.21 36,41.71 39.9,43.75 40.16,43.88 40.43,44.03 44.87,46.35 45.26,46.56 47.65,47.81 
	49.3,48.67 50.37,49.23 53.73,50.99 "/>
<polyline class="st0" points="58.16,57.97 60.1,58.98 61.96,59.96 62.6,60.29 "/>
<line class="st0" x1="83.7" y1="71.35" x2="80.52" y2="69.69"/>
<polyline class="st0" points="80.33,69.58 77.48,68.09 75.89,67.26 75.42,67.01 71.46,64.94 70.31,64.34 69.71,64.02 67.03,62.61 
	"/>
<polyline class="st0" points="23.72,39.92 24.36,40.25 27.13,41.71 "/>
<polyline class="st0" points="49.3,53.32 49.89,53.63 53.73,55.65 "/>
<polyline class="st0" points="58.16,62.61 59.63,63.38 60.76,63.97 62.6,64.94 "/>
<polyline class="st0" points="67.03,67.26 68.52,68.04 69.84,68.73 71.46,69.58 74.94,71.4 75.89,71.9 76.28,72.1 80.05,74.08 
	80.33,74.23 81.48,74.83 "/>
<polyline class="st0" points="27.13,46.35 23.88,44.65 21.98,43.65 21.5,43.4 "/>
<polyline class="st0" points="53.73,60.29 53.01,59.91 49.42,58.03 49.3,57.97 "/>
<polyline class="st0" points="58.16,76.54 58.19,76.56 62.6,78.87 "/>
<polyline class="st0" points="74.83,85.28 71.46,83.51 67.03,81.19 64.91,80.08 "/>
<polygon class="st2" points="40.3,30.57 40.3,41.8 39.85,41.8 36.74,40.17 35.87,39.71 35.87,36.18 31.63,37.49 31.43,37.38 
	31.43,37.55 30.88,37.72 27,38.92 26.05,39.21 22.57,40.28 22.57,41.7 21.94,41.7 22.57,42.03 25.57,43.61 27,44.35 29.69,45.76 
	30.68,46.28 31.43,46.68 35.77,48.96 35.87,49 37.44,49.82 40.3,51.32 40.3,56.06 35.87,57.43 34.83,57.75 34.46,57.86 31.43,58.8 
	29.25,59.47 27,60.16 23.67,61.19 24.88,61.83 27,62.93 28.77,63.86 31.43,65.25 31.43,65.89 32.64,65.89 33.88,66.54 35.87,67.58 
	35.87,65.93 35.92,65.91 35.87,65.91 35.87,61.89 40.3,61.91 40.3,73.98 39.2,73.97 38.51,73.61 37.36,73.96 35.87,73.96 
	35.87,72.23 33.39,70.94 31.45,69.91 31.43,69.9 28.3,68.26 27,67.58 23.68,65.84 23.19,65.58 22.57,65.26 18.13,62.93 18.13,57.77 
	20.92,57.79 22.57,57.28 24.13,56.79 27,55.91 29.73,55.07 31.43,54.55 33.76,53.83 35.31,53.35 35.87,53.65 35.87,53.84 
	36.24,53.84 35.87,53.65 35.87,53.18 35.31,53.35 31.43,51.32 30.2,50.68 28.49,49.78 27,49.77 27,49 25.1,48 22.57,46.68 
	20.73,45.71 18.76,45.7 18.13,45.7 18.13,37.4 20.94,36.53 22.57,36.03 26.51,34.81 27,34.67 30.15,33.69 31.43,33.3 32.12,33.09 
	35.87,31.93 37.69,31.37 "/>
<polyline class="st0" points="27.13,60.28 26.14,59.77 22.46,57.84 14.85,53.85 "/>
<polyline class="st0" points="53.73,74.22 53.09,73.89 49.41,71.96 49.3,71.9 "/>
<line class="st0" x1="41.65" y1="67.89" x2="40.43" y2="67.25"/>
<polyline class="st0" points="57.71,80.96 58.16,81.19 62.6,83.52 72.62,88.77 "/>
<polyline class="st0" points="27.13,64.93 27.08,64.91 24.93,63.78 12.64,57.34 "/>
<polyline class="st0" points="53.73,78.87 52.61,78.28 49.3,76.55 48.2,75.97 "/>
<polyline class="st0" points="70.4,92.25 53.73,83.51 52.13,82.68 49.3,81.19 47.03,80 47,79.99 44.87,78.87 41.93,77.33 
	40.43,76.55 39.26,75.93 39.25,75.93 36.82,74.65 36,74.22 31.72,71.98 31.57,71.9 31.51,71.87 31.5,71.87 27.13,69.58 26.61,69.3 
	23.73,67.79 23.72,67.79 10.42,60.82 "/>
<polyline class="st0" points="90.75,27.93 84.76,27.9 80.33,27.87 78.36,27.86 75.89,27.85 71.46,27.82 67.03,27.8 64.81,27.79 
	62.6,27.78 58.16,27.75 "/>
<polyline class="st0" points="53.73,27.73 53.65,27.73 51.27,27.71 49.3,27.7 44.87,27.68 44.68,27.68 40.43,27.65 36,27.63 
	35.73,27.63 31.57,27.61 27.13,27.58 21.49,27.55 "/>
<polyline class="st0" points="58.16,35.8 60.19,35.81 62.6,35.82 "/>
<line class="st0" x1="79.82" y1="35.91" x2="78.11" y2="35.9"/>
<line class="st0" x1="90.7" y1="35.97" x2="84.76" y2="35.94"/>
<polyline class="st0" points="21.44,35.6 25.6,35.62 27.13,35.63 31.57,35.65 33.33,35.66 36,35.68 39.16,35.69 "/>
<polyline class="st0" points="49.3,35.75 51.24,35.76 52.71,35.77 53.73,35.77 "/>
<polyline class="st0" points="90.72,31.95 84.76,31.92 80.33,31.89 79.08,31.89 75.89,31.87 71.46,31.85 70.36,31.84 67.03,31.82 
	65.53,31.82 62.6,31.8 61.42,31.79 58.16,31.78 "/>
<polyline class="st0" points="21.46,31.58 27.13,31.61 31.57,31.63 34.55,31.65 36,31.66 38.42,31.67 40.43,31.68 43.49,31.7 
	44.87,31.71 49.3,31.73 51.98,31.74 52.44,31.75 53.73,31.75 "/>
<line class="st0" x1="67.96" y1="39.88" x2="67.03" y2="39.87"/>
<polyline class="st0" points="62.6,39.85 59,39.83 58.16,39.82 "/>
<polyline class="st0" points="90.67,40 85.88,39.97 84.76,39.97 "/>
<polyline class="st0" points="21.41,39.62 26.33,39.65 27.13,39.65 "/>
<polyline class="st0" points="53.73,39.8 53.42,39.8 50.06,39.78 49.3,39.77 "/>
<polyline class="st0" points="44.87,39.75 41.08,39.73 40.43,39.72 39.88,39.72 "/>
<polyline class="st0" points="67.03,43.89 67.69,43.9 71.46,43.92 75.72,43.94 75.89,43.94 80.33,43.96 "/>
<line class="st0" x1="90.64" y1="44.02" x2="84.76" y2="43.99"/>
<line class="st0" x1="62.6" y1="43.87" x2="58.16" y2="43.85"/>
<polyline class="st0" points="21.38,43.65 21.98,43.65 27.03,43.68 27.13,43.68 "/>
<polyline class="st0" points="31.57,43.7 36,43.73 39.9,43.75 40.43,43.75 40.58,43.75 44.87,43.78 48.85,43.8 "/>
<line class="st0" x1="53.73" y1="43.82" x2="49.3" y2="43.8"/>
<line class="st0" x1="62.6" y1="47.89" x2="58.16" y2="47.87"/>
<line class="st0" x1="90.62" y1="48.04" x2="84.76" y2="48.01"/>
<polyline class="st0" points="80.33,47.99 75.89,47.96 74.51,47.95 71.46,47.94 68.42,47.92 67.03,47.91 "/>
<line class="st0" x1="27.13" y1="47.7" x2="21.36" y2="47.67"/>
<polyline class="st0" points="53.73,47.84 49.3,47.82 47.65,47.81 44.87,47.8 41.31,47.78 40.43,47.77 38.69,47.76 "/>
<polyline class="st0" points="58.16,63.96 60.76,63.97 62.6,63.98 "/>
<polyline class="st0" points="90.51,64.13 87.62,64.11 84.86,64.1 84.76,64.1 "/>
<polyline class="st0" points="80.33,64.08 78.68,64.07 75.89,64.05 71.46,64.03 71.31,64.03 69.71,64.02 67.03,64 "/>
<polyline class="st0" points="21.25,63.76 24.93,63.78 27.13,63.79 "/>
<polyline class="st0" points="33.89,63.83 36,63.84 40.43,63.86 42.84,63.88 44.2,63.88 44.87,63.89 "/>
<polyline class="st0" points="49.3,63.91 51.81,63.92 53.73,63.93 "/>
<polyline class="st0" points="58.16,67.98 58.47,67.98 59.58,67.99 62.6,68.01 "/>
<polyline class="st0" points="90.48,68.16 85.56,68.13 84.76,68.13 "/>
<polyline class="st0" points="80.33,68.1 77.48,68.09 75.89,68.08 72.02,68.06 71.46,68.06 68.52,68.04 67.03,68.03 "/>
<polyline class="st0" points="21.22,67.78 23.72,67.79 23.73,67.79 27.13,67.81 31.37,67.84 31.57,67.84 32.68,67.84 "/>
<line class="st0" x1="44.87" y1="67.91" x2="41.65" y2="67.89"/>
<polyline class="st0" points="49.3,67.93 50.6,67.94 53.73,67.96 "/>
<line class="st0" x1="62.6" y1="51.91" x2="58.16" y2="51.89"/>
<path class="st2" d="M70.17,30.76l-0.51,0l-1.07,0.33l-0.64-0.34l-2.22-0.02l-4.43-0.04l-2.29-0.03l-2.14-0.02l-0.77,0l-3.66-0.03
	l-0.07,19.82l0.57,0.3l-0.57,0l-0.09,24.13l2.31,0.02l2.12,0.03l0.09-24.14l2.83,0.03l1.6,0.02l0-0.35l-0.19-0.1l0.19-0.06l0,0.16
	l0.66,0.35l3.77,0.03l4.44,0.04l-0.05,13.55l0.19,0.11l-0.19,0.05L70,75.02l4.43,0.04l0.08-20.11l-0.62,0l0.62-0.2l0.06-15.85
	l-0.07-0.04l0.07,0l0.03-8.05L70.17,30.76z M70.16,34.85l-0.05,12.01l-4.44-0.05l-2.57-0.02l-1.86-0.02l-2.31-0.02l-2.12-0.03
	l0.01-3.26l-0.38-0.2l0.38-0.12l0.02-4.32l-0.27-0.14l0.27,0l0.02-4.02l-0.06,0l0.06-0.02l0-0.46l0.56,0.29l0.37,0.2l3.5,0.02
	l4.43,0.05l1.04,0l3.4,0.03l0.19,0L70.16,34.85z"/>
<line class="st0" x1="90.59" y1="52.06" x2="84.76" y2="52.03"/>
<polyline class="st0" points="36,51.77 31.57,51.74 28.54,51.73 28.49,51.73 27.13,51.72 21.33,51.69 "/>
<polyline class="st0" points="53.73,51.86 49.3,51.84 46.44,51.82 "/>
<line class="st0" x1="62.6" y1="55.94" x2="58.16" y2="55.91"/>
<polyline class="st0" points="90.56,56.09 90.04,56.09 84.76,56.06 "/>
<line class="st0" x1="72.12" y1="55.99" x2="71.46" y2="55.99"/>
<polyline class="st0" points="42.76,55.83 40.43,55.81 36.3,55.79 36,55.79 31.57,55.77 29.22,55.75 27.32,55.74 27.13,55.74 
	21.3,55.71 "/>
<line class="st0" x1="53.73" y1="55.89" x2="49.3" y2="55.86"/>
<polyline class="st0" points="58.16,59.94 61.96,59.96 62.6,59.96 "/>
<polyline class="st0" points="90.54,60.11 88.84,60.1 84.76,60.08 "/>
<polyline class="st0" points="80.33,60.06 79.87,60.05 75.89,60.03 71.46,60.01 70.93,60.01 70.58,60 67.03,59.98 "/>
<polyline class="st0" points="27.13,59.77 26.14,59.77 21.28,59.74 "/>
<polyline class="st0" points="53.73,59.91 53.01,59.91 49.3,59.89 44.87,59.87 44.06,59.86 43.47,59.86 "/>
<polyline class="st0" points="58.16,72.01 58.36,72.01 59.19,72.01 62.6,72.03 "/>
<polyline class="st0" points="90.46,72.18 86.29,72.16 84.76,72.15 "/>
<polyline class="st0" points="80.33,72.13 76.28,72.1 75.89,72.1 72.73,72.09 71.46,72.08 67.34,72.06 67.03,72.05 "/>
<polyline class="st0" points="21.2,71.81 27.13,71.84 31.5,71.87 31.51,71.87 31.57,71.87 32.08,71.87 36,71.89 40.43,71.91 
	40.45,71.91 "/>
<polyline class="st0" points="49.3,71.96 49.41,71.96 53.73,71.98 "/>
<polyline class="st0" points="58.16,76.03 59.9,76.04 62.6,76.05 "/>
<line class="st0" x1="90.43" y1="76.2" x2="84.76" y2="76.17"/>
<polyline class="st0" points="80.33,76.15 75.89,76.12 75.09,76.12 73.46,76.11 71.46,76.1 67.03,76.07 "/>
<line class="st0" x1="53.73" y1="76" x2="49.3" y2="75.98"/>
<line class="st0" x1="48.2" y1="75.97" x2="46.36" y2="75.96"/>
<polyline class="st0" points="44.87,75.96 40.43,75.93 39.26,75.93 39.25,75.93 36,75.91 32.81,75.89 31.57,75.89 27.13,75.86 
	21.17,75.83 "/>
<line class="st0" x1="90.41" y1="80.22" x2="84.76" y2="80.19"/>
<polyline class="st0" points="62.6,80.07 60.63,80.06 58.16,80.05 "/>
<polyline class="st0" points="67.03,80.1 71.46,80.12 73.87,80.13 75.89,80.14 80.33,80.17 "/>
<polyline class="st0" points="21.15,79.85 27.13,79.88 31.57,79.91 33.54,79.92 36,79.93 40.43,79.95 44.87,79.98 47,79.99 
	47.07,79.99 49.3,80 53.73,80.02 "/>
<ellipse class="st3" cx="48.92" cy="48.25" rx="35.5" ry="37"/>
</svg>
