<svg xmlns="http://www.w3.org/2000/svg" width="33.75" height="56.279" viewBox="0 0 33.75 56.279"><g transform="translate(2.19 5.052)"><path d="M0,51,5.7,24.1C2.524,20.317.37,15.686.73,10.5,1.767-4.454,22.336-1.165,26.337,6.381s3.526,26.687-1.645,28.036c-2.062.538-6.456-.78-10.927-3.507L16.572,51Z" transform="translate(0.297 0.227)" fill="#e3ad7b"/></g><path d="M7.237,32.183C5.145,22.874-.817,16.528.094,12.367A7.082,7.082,0,0,1,4.947,7.192S6.986-1.056,18.1.175s17.9,5.847,14.968,16c-2.693,0-5.943-.974-10.439.695-2.139.794-3.06,4.925-3.06,4.925H17.537s-2.957-4.9-5.832-3.6S10.4,24.508,10.4,24.508l-1,7.675Z" transform="translate(0 -0.05)"/></svg>