<svg xmlns="http://www.w3.org/2000/svg" width="44.307" height="59" viewBox="0 0 44.307 59"><g transform="translate(-146.346 -35.186)"><path d="M22.154,45.034a21.36,21.36,0,0,1-8.623-1.8,22.046,22.046,0,0,1-7.042-4.918,22.929,22.929,0,0,1-4.748-7.293,23.78,23.78,0,0,1,0-17.862A22.931,22.931,0,0,1,6.488,5.866,22.055,22.055,0,0,1,13.53.948,21.671,21.671,0,0,1,16.141,0V7.413A16.035,16.035,0,0,0,6.962,22.09c0,8.813,6.815,15.984,15.191,15.984S37.344,30.9,37.344,22.09A16.035,16.035,0,0,0,28.166,7.413V0a21.658,21.658,0,0,1,2.61.948,22.055,22.055,0,0,1,7.043,4.917,22.937,22.937,0,0,1,4.748,7.293,23.78,23.78,0,0,1,0,17.862,22.932,22.932,0,0,1-4.748,7.293,22.046,22.046,0,0,1-7.042,4.917,21.357,21.357,0,0,1-8.623,1.8Z" transform="translate(146.346 49.152)" fill="#0e0f10"/><path d="M18.039,47V8.228H0V0H44.307V8.228H26.267V47Z" transform="translate(146.346 35.186)" fill="#0e0f10"/></g></svg>