<svg xmlns="http://www.w3.org/2000/svg" width="27.5" height="22" viewBox="0 0 27.5 22"><path d="M16.5,13.75H11a1.375,1.375,0,0,0-1.375,1.375v5.5A1.375,1.375,0,0,0,11,22h5.5a1.375,1.375,0,0,0,1.375-1.375v-5.5A1.375,1.375,0,0,0,16.5,13.75ZM8.25,1.375A1.375,1.375,0,0,0,6.875,0h-5.5A1.375,1.375,0,0,0,0,1.375v5.5A1.375,1.375,0,0,0,1.375,8.25H5.488l3.144,5.5A2.741,2.741,0,0,1,11,12.375h.012L8.25,7.541V5.5h9.625V2.75H8.25ZM26.125,0h-5.5A1.375,1.375,0,0,0,19.25,1.375v5.5A1.375,1.375,0,0,0,20.625,8.25h5.5A1.375,1.375,0,0,0,27.5,6.875v-5.5A1.375,1.375,0,0,0,26.125,0Z" fill="#17ffbd"/></svg>