<svg xmlns="http://www.w3.org/2000/svg" width="155.17" height="206.628" viewBox="0 0 155.17 206.628"><g transform="translate(-146.346 -151.186)" opacity="0.09"><path d="M77.585,157.717a74.8,74.8,0,0,1-30.2-6.312,77.208,77.208,0,0,1-24.661-17.224A80.3,80.3,0,0,1,6.1,108.639a83.281,83.281,0,0,1,0-62.557,80.309,80.309,0,0,1,16.627-25.54A77.24,77.24,0,0,1,47.385,3.322,75.9,75.9,0,0,1,56.527,0V25.961a56.155,56.155,0,0,0-32.144,51.4c0,30.863,23.867,55.979,53.2,55.979s53.2-25.116,53.2-55.979a56.155,56.155,0,0,0-32.141-51.4V0a75.85,75.85,0,0,1,9.139,3.322,77.24,77.24,0,0,1,24.664,17.221,80.328,80.328,0,0,1,16.627,25.542,83.281,83.281,0,0,1,0,62.557,80.312,80.312,0,0,1-16.627,25.54A77.208,77.208,0,0,1,107.785,151.4a74.794,74.794,0,0,1-30.2,6.315Z" transform="translate(146.346 200.096)" fill="#17ffbd"/><path d="M63.175,164.59V28.817H0V0H155.169V28.817H91.992V164.59Z" transform="translate(146.347 151.186)" fill="#17ffbd"/></g></svg>